<svg width="47" height="47" viewBox="0 0 47 47" fill="none" xmlns="http://www.w3.org/2000/svg">
<path d="M23.3981 2.32933C27.5645 2.3291 31.6373 3.56444 35.1015 5.87913C38.5658 8.19381 41.2659 11.4839 42.8604 15.3333C44.4548 19.1826 44.8721 23.4184 44.0593 27.505C43.2466 31.5915 41.2403 35.3452 38.2943 38.2914C35.3483 41.2377 31.5948 43.244 27.5085 44.0568C23.4223 44.8696 19.1868 44.4524 15.3376 42.8578C11.4885 41.2632 8.19867 38.5629 5.88414 35.0984C3.56961 31.6339 2.33435 27.5609 2.33458 23.3943C2.33458 17.8075 4.55377 12.4496 8.50395 8.49911C12.4541 4.54867 17.8117 2.32933 23.3981 2.32933ZM23.3981 4.19505e-05C17.9989 0.000138853 12.7659 1.86757 8.58631 5.28571C4.40669 8.70386 1.53772 13.4624 0.4658 18.7544C-0.606117 24.0465 0.184995 29.5465 2.705 34.3218C5.22501 39.0971 9.31884 42.854 14.2924 44.9554C20.0096 47.3707 26.452 47.4158 32.2025 45.0807C37.9529 42.7456 42.5403 38.2217 44.9555 32.5041C47.3706 26.7866 47.4157 20.3437 45.0808 14.5928C42.7459 8.84202 38.2223 4.25433 32.5051 1.83902C29.6241 0.619575 26.5266 -0.00590065 23.3981 4.19505e-05Z" fill="white"/>
<path d="M18.7552 32.3642C18.3309 32.363 17.9144 32.2501 17.5476 32.0369C17.1781 31.8264 16.8715 31.5211 16.6592 31.1527C16.4469 30.7842 16.3367 30.3658 16.3399 29.9405V17.063C16.3391 16.6387 16.4501 16.2216 16.6618 15.8537C16.8735 15.4859 17.1783 15.1803 17.5456 14.9678C17.9129 14.7553 18.3297 14.6433 18.7541 14.6431C19.1785 14.6429 19.5954 14.7545 19.9629 14.9667L31.1183 21.4072C31.4851 21.6194 31.7896 21.9244 32.0014 22.2916C32.2131 22.6587 32.3245 23.0751 32.3245 23.4989C32.3245 23.9227 32.2131 24.3391 32.0014 24.7062C31.7896 25.0733 31.4851 25.3783 31.1183 25.5906L19.9629 32.0322C19.5965 32.2471 19.18 32.3616 18.7552 32.3642ZM18.7552 16.9757C18.7396 16.9762 18.7244 16.9806 18.711 16.9885C18.697 16.9949 18.6853 17.0056 18.6776 17.0189C18.6699 17.0323 18.6665 17.0477 18.6679 17.063V29.9452C18.6681 29.9602 18.6722 29.9749 18.6799 29.9878C18.6876 30.0008 18.6985 30.0115 18.7115 30.0189C18.7246 30.0263 18.7394 30.0302 18.7544 30.0301C18.7694 30.0301 18.7841 30.0261 18.7972 30.0186L29.9526 23.5781C29.9662 23.5713 29.9776 23.5606 29.9851 23.5473C29.9925 23.534 29.9958 23.5187 29.9945 23.5035C29.9957 23.4884 29.9923 23.4732 29.9848 23.4599C29.9774 23.4466 29.9661 23.4359 29.9526 23.429L18.7972 16.9885C18.7847 16.9803 18.7701 16.9759 18.7552 16.9757Z" fill="white"/>
</svg>
